<svg
    viewBox="0 0 613 433"
    fill="none"
    xmlns="http://www.w3.org/2000/svg"
    preserveAspectRatio="none"
>
    <path
        d="M216.451 27.3217C167.145 -0.692501 123.358 -2.4845 88.4758 4.3415C38.4277 14.1431 -1.49393 42.5447 1.12157 99.7326C1.62293 110.561 3.95404 123.015 12.527 136.174C25.9054 156.705 49.7848 172.229 70.5827 182.919C122.395 209.562 171.313 222.19 218.148 232.008C261.77 241.157 304.4 248.204 346.038 253.15C378.538 257.037 410.959 259.507 435.159 250.812C438.617 249.561 442.092 247.677 441.254 242.973C440.566 239.877 438.589 236.332 435.734 233.072C424.126 219.311 407.444 214.32 395.107 213.025C333.068 206.704 294.951 237.773 272.977 279.604C265.931 293.048 260.374 309.217 269.242 331.598C281.125 361.664 316.506 393.705 347.936 409.634C379.365 425.564 407.47 428.748 433.558 430.125C499.337 433.521 559.45 427.471 612.602 412.105"
        stroke="currentColor"
        stroke-width="2"
        stroke-miterlimit="10"
    />
</svg>
